<?xml version="1.0" encoding="UTF-8"?>
<svg version="1.1" xmlns="http://www.w3.org/2000/svg" width="4000" height="4000">
<path d="M0 0 C1320 0 2640 0 4000 0 C4000 1320 4000 2640 4000 4000 C2680 4000 1360 4000 0 4000 C0 2680 0 1360 0 0 Z " fill="#030034" transform="translate(0,0)"/>
<path d="M0 0 C0.98484375 0.78117187 1.9696875 1.56234375 2.984375 2.3671875 C17.58842998 14.19913399 31.03622242 27.71894542 42 43 C42.4542334 43.62583984 42.9084668 44.25167969 43.37646484 44.89648438 C70.47816238 82.4520942 86.50387744 126.74354037 86.375 173.3125 C86.37412384 174.09413513 86.37324768 174.87577026 86.37234497 175.68109131 C86.2374323 212.46043327 76.42755491 248.64199866 59 281 C58.39800781 282.14339844 57.79601563 283.28679688 57.17578125 284.46484375 C48.94802856 299.52318359 38.41279278 313.22513765 27 326 C26.50081055 326.56090332 26.00162109 327.12180664 25.48730469 327.69970703 C19.67486567 334.19907066 13.83038995 340.54799505 7 346 C6.04738281 346.76699219 5.09476563 347.53398437 4.11328125 348.32421875 C-9.01399916 358.73920107 -23.20615064 367.17410262 -38 375 C-38.97815674 375.52376221 -38.97815674 375.52376221 -39.97607422 376.05810547 C-69.33972835 391.56084376 -100.24964969 397.30991762 -133.125 397.375 C-134.04179535 397.37735657 -134.9585907 397.37971313 -135.90316772 397.38214111 C-198.24264679 397.36397306 -252.1748178 369.92542325 -296 327 C-298.49215383 324.43887512 -300.77275948 321.79288891 -303 319 C-304.23943359 317.48212891 -304.23943359 317.48212891 -305.50390625 315.93359375 C-326.73276924 289.67417673 -341.04217612 260.4914649 -350 228 C-350.31839844 226.85660156 -350.63679688 225.71320312 -350.96484375 224.53515625 C-365.24407014 170.47301056 -353.30162805 110.06100855 -325.77612305 62.20849609 C-310.98654847 37.29938978 -292.29229925 15.27029458 -269 -2 C-268.41428223 -2.43586426 -267.82856445 -2.87172852 -267.22509766 -3.32080078 C-186.88937949 -62.75725175 -78.86665815 -63.22550528 0 0 Z " fill="#FDFDFE" transform="translate(2040,1914)"/>
<path d="M0 0 C0.88236328 0.1453418 1.76472656 0.29068359 2.67382812 0.44042969 C45.94567573 7.65240429 85.29535543 26.88386889 118 56 C118.51401367 56.4522998 119.02802734 56.90459961 119.55761719 57.37060547 C136.43785162 72.25840146 150.43944796 89.71015839 162 109 C162.58080322 109.95036133 162.58080322 109.95036133 163.17333984 110.91992188 C175.73429164 131.64422866 184.23541519 154.27791374 189 178 C189.17499023 178.82467773 189.34998047 179.64935547 189.53027344 180.49902344 C194.20213882 203.22926749 194.28737563 230.19973639 190 253 C189.78988281 254.13791992 189.57976563 255.27583984 189.36328125 256.44824219 C185.90055465 274.68252077 181.28259455 291.86539063 174 309 C173.63116699 309.88606934 173.26233398 310.77213867 172.88232422 311.68505859 C165.86960595 328.43439234 157.32626776 343.78105234 146 358 C145.07960938 359.22589844 145.07960938 359.22589844 144.140625 360.4765625 C132.60861521 375.37591915 118.42587083 389.16722554 103 400 C102.32291992 400.47840332 101.64583984 400.95680664 100.94824219 401.44970703 C83.61928101 413.58464864 65.62594061 423.13240442 46 431 C44.78957031 431.49371094 43.57914063 431.98742188 42.33203125 432.49609375 C-7.38031894 451.56140368 -65.84645168 447.01055738 -113.97265625 425.68261719 C-127.21606783 419.69058281 -140.04754768 413.29877514 -152 405 C-152.74942871 404.48211914 -153.49885742 403.96423828 -154.27099609 403.43066406 C-165.10462256 395.86985651 -175.07347763 387.73967742 -184.49462891 378.47900391 C-185.77949391 377.21664384 -187.08141458 375.97168269 -188.38671875 374.73046875 C-220.30467097 343.94124569 -238.28129512 300.54129019 -245.75 257.5625 C-245.86577393 256.90217773 -245.98154785 256.24185547 -246.10083008 255.56152344 C-255.26848835 198.58958169 -241.99224375 137.90157406 -208.47167969 90.85498047 C-201.55109863 81.3544506 -194.16539993 72.45232467 -186 64 C-185.12988281 63.07832031 -184.25976562 62.15664062 -183.36328125 61.20703125 C-176.43552659 54.03655234 -168.97920766 47.93367742 -161 42 C-160.36884277 41.52449707 -159.73768555 41.04899414 -159.08740234 40.55908203 C-113.93631631 6.73249868 -56.23137373 -10.03598034 0 0 Z " fill="#FDFDFE" transform="translate(3627,1868)"/>
<path d="M0 0 C1.27641357 0.33257813 1.27641357 0.33257813 2.57861328 0.671875 C56.77489655 15.12701859 104.66131506 51.04058935 132.95019531 99.59545898 C133.6389059 100.80263891 134.32323807 102.01232848 135.00292969 103.22460938 C135.98724303 104.97728484 136.99739653 106.71536679 138.0078125 108.453125 C154.87652557 138.09804392 170.62068599 184.73367018 161.56567383 218.94018555 C158.28554825 229.36953159 152.47606083 237.39973342 143 243 C134.25578709 247.35118728 125.80917661 248.14784596 116.19009399 248.15148926 C115.33805055 248.15572167 114.48600711 248.15995408 113.60814416 248.16431475 C110.76952259 248.17726724 107.93092908 248.18334957 105.09228516 248.18945312 C103.04730563 248.19740432 101.00232777 248.20579297 98.95735168 248.21458435 C94.55138259 248.23262569 90.14541714 248.24765027 85.73942947 248.26036072 C78.70780428 248.28075075 71.67621857 248.3084004 64.6446228 248.33703613 C50.90459562 248.39202727 37.16454847 248.44000419 23.42449188 248.48697662 C3.75997214 248.55437996 -15.90453348 248.62491461 -35.56900883 248.70429993 C-37.95651497 248.71393824 -40.34402145 248.72349015 -42.73152828 248.73295593 C-73.85307797 248.8570219 -104.96534237 249.06046958 -136.08040047 249.73575592 C-137.04080679 249.75656975 -138.00121311 249.77738358 -138.99072266 249.79882812 C-139.90218992 249.81877586 -140.81365719 249.8387236 -141.75274467 249.85927582 C-152.16779423 250.07073462 -162.58334246 250.04455718 -173 250 C-171.73330879 268.79636035 -162.97137406 284.00918072 -152 299 C-151.35546875 299.88816406 -150.7109375 300.77632812 -150.046875 301.69140625 C-138.62720219 316.63774273 -124.89240584 327.47840231 -108.375 336.3125 C-107.61171387 336.72137451 -106.84842773 337.13024902 -106.06201172 337.55151367 C-80.4352084 350.84059954 -46.92119453 355.2659636 -19.13330078 346.68896484 C-18.42931152 346.46160645 -17.72532227 346.23424805 -17 346 C-15.83766846 345.6299585 -15.83766846 345.6299585 -14.65185547 345.25244141 C7.72040228 337.95041619 31.23409152 325.28073764 46.5625 306.9375 C55.52358488 296.24061176 65.43875478 290.42136123 79.27709961 289.18310547 C83.85279808 288.87540585 88.4151898 288.81571065 93 288.8125 C93.92039062 288.80025391 94.84078125 288.78800781 95.7890625 288.77539062 C109.68449647 288.74603407 121.79048031 292.23186932 132 302 C137.76385305 308.95849781 140.61443961 316.11755439 140.3671875 325.2109375 C138.35862213 340.46748726 127.80320578 353.63908893 117.48046875 364.37890625 C114.98697899 366.94002995 114.98697899 366.94002995 112.88671875 369.6484375 C111.22901212 371.7145646 109.63607058 373.35627496 107.625 375.0625 C105.0512971 377.25228037 102.48845027 379.44810471 99.96484375 381.6953125 C86.44808052 393.64359116 71.95366234 403.59626211 56 412 C55.35740234 412.34514648 54.71480469 412.69029297 54.05273438 413.04589844 C43.3972767 418.74844237 32.46600452 423.19716173 21 427 C20.08718262 427.30325195 19.17436523 427.60650391 18.23388672 427.91894531 C-4.93297986 435.46605689 -27.11286038 438.35204837 -51.375 438.4375 C-52.2980896 438.44385468 -53.2211792 438.45020935 -54.17224121 438.45675659 C-71.1229647 438.52931639 -87.78144505 436.9645494 -104.125 432.25 C-105.03330566 431.99395996 -105.94161133 431.73791992 -106.87744141 431.47412109 C-121.63395182 427.19646064 -135.46338956 421.22309253 -149 414 C-150.00160156 413.47019531 -150.00160156 413.47019531 -151.0234375 412.9296875 C-167.77232092 404.00978407 -182.68139929 392.89229518 -196.6875 380.08984375 C-198.64985514 378.31643159 -200.64661409 376.61849755 -202.6875 374.9375 C-205.82731277 372.26609753 -208.47663733 369.31170134 -211.13671875 366.16796875 C-212.396246 364.70248107 -213.69219127 363.26764289 -215.01953125 361.86328125 C-240.31163988 335.02174614 -260.40073523 295.64774289 -265 259 C-265.13100098 257.97181152 -265.26200195 256.94362305 -265.39697266 255.88427734 C-268.02045602 234.60491229 -268.33258631 214.28769654 -267.125 192.9375 C-267.08597565 192.22799194 -267.04695129 191.51848389 -267.00674438 190.78747559 C-266.53365179 182.4057282 -265.80025902 174.21299268 -264 166 C-263.7218042 164.71355591 -263.7218042 164.71355591 -263.43798828 163.40112305 C-256.68350082 133.53319018 -243.95810666 104.83903949 -226 80 C-225.26265625 78.97003906 -224.5253125 77.94007812 -223.765625 76.87890625 C-191.14752949 32.4049427 -146.03757271 5.14153562 -92 -5 C-90.97374512 -5.19698486 -90.97374512 -5.19698486 -89.92675781 -5.39794922 C-60.67566186 -10.70482744 -28.49092023 -7.4418511 0 0 Z " fill="#FCFCFE" transform="translate(3170,1873)"/>
<path d="M0 0 C1.26005859 0.00064453 2.52011719 0.00128906 3.81835938 0.00195312 C9.99449897 0.03038548 16.07008135 0.23415012 22.22992992 0.68879318 C29.4689497 1.19165152 36.67448897 1.32719513 43.93171692 1.31207275 C45.21562952 1.3134829 46.49954213 1.31489305 47.82236117 1.31634593 C50.6097498 1.31937034 53.39711449 1.31932383 56.18450356 1.31678963 C60.72240437 1.31268404 65.26028693 1.3155219 69.79818726 1.31913757 C75.5350721 1.32320956 81.2719528 1.32546679 87.00883909 1.32555357 C98.27623113 1.32575726 109.54358064 1.33827065 120.81095886 1.35516357 C122.58962513 1.35776905 124.36829141 1.36036787 126.1469577 1.3629601 C128.841363 1.36689794 131.53576829 1.37084459 134.23017353 1.37482132 C144.36104828 1.38973307 154.49192429 1.40337699 164.62280273 1.41552734 C165.54775953 1.4166409 166.47271633 1.41775447 167.42570212 1.41890177 C182.43650665 1.43650215 197.44728424 1.43934365 212.45809738 1.43767694 C227.89689615 1.43639735 243.33559482 1.45414061 258.77435511 1.48869491 C268.2838161 1.50931613 277.79303705 1.51470421 287.3025107 1.5003666 C293.81552544 1.49189925 300.3283535 1.50166056 306.84132884 1.5256761 C310.59564137 1.53896157 314.34950589 1.5442091 318.10381508 1.52755547 C322.17898674 1.50967835 326.25306386 1.53056282 330.32820129 1.55499268 C332.0959612 1.53795961 332.0959612 1.53795961 333.89943343 1.52058244 C342.14183032 1.61657434 348.87127381 3.28975013 355.18812591 8.8336041 C361.46471841 15.28610585 363.78503205 23.63315111 363.71582031 32.43432617 C363.67086426 33.92089722 363.67086426 33.92089722 363.625 35.4375 C363.60663086 36.49364502 363.58826172 37.54979004 363.56933594 38.63793945 C363.52486574 40.92566554 363.47030032 43.21321302 363.40673828 45.50048828 C363.32392211 48.74061726 363.27398108 51.97941237 363.23942566 55.22036743 C363.20691794 57.94056297 363.15571389 60.66019613 363.09994507 63.38000488 C363.06315537 65.34008315 363.04181334 67.30043182 363.02075195 69.26074219 C362.79754983 77.51646523 362.05571995 81.21274067 356.41796875 87.19921875 C355.78503906 87.75222656 355.15210938 88.30523438 354.5 88.875 C353.56220703 89.71611328 353.56220703 89.71611328 352.60546875 90.57421875 C345.64879067 95.46878101 339.5668287 95.6218948 331.27137756 95.58622742 C329.45543418 95.59619766 329.45543418 95.59619766 327.60280508 95.60636932 C324.25499806 95.62176385 320.90766694 95.62384289 317.55985868 95.62023985 C313.94505141 95.61961504 310.33031811 95.63624511 306.71554565 95.65075684 C300.45688896 95.67353162 294.19828788 95.68542601 287.93959236 95.68988609 C278.89063583 95.69635038 269.84177979 95.71929266 260.79286378 95.74622939 C246.11086539 95.78948836 231.42887122 95.8194602 216.74682617 95.84106445 C202.48638834 95.8620768 188.22598514 95.88935414 173.96557617 95.92504883 C172.64658923 95.92834707 172.64658923 95.92834707 171.30095608 95.93171193 C166.88954924 95.94278165 162.47814272 95.95397445 158.06673634 95.96522844 C121.48202079 96.05840095 84.89728815 96.13000476 48.3125 96.1875 C45.72910921 101.85127456 45.72910921 101.85127456 44.984375 107.9296875 C44.99210937 109.18845703 44.99210937 109.18845703 45 110.47265625 C45.020625 111.32730469 45.04125 112.18195313 45.0625 113.0625 C45.07023437 114.33287109 45.07023437 114.33287109 45.078125 115.62890625 C45.12574418 119.51582214 45.32032794 123.24858682 45.81547546 127.11256409 C46.45119166 132.78942652 46.44501621 138.4263165 46.42602539 144.13305664 C46.42617142 145.29504578 46.42631744 146.45703491 46.4264679 147.65423584 C46.42577505 151.46872876 46.41801219 155.28317194 46.41015625 159.09765625 C46.40828984 161.75280337 46.40681775 164.40794779 46.40586853 167.06309509 C46.40277133 173.32080525 46.39457983 179.57849776 46.38451904 185.83620018 C46.37330766 192.96565409 46.36783483 200.09510889 46.36282361 207.22456944 C46.35239573 221.8788887 46.33482774 236.5331941 46.3125 251.1875 C47.3197966 251.11685333 48.3270932 251.04620667 49.36491394 250.97341919 C62.74229966 250.09931226 76.08663469 250.04217784 89.48828125 250.0546875 C91.94614683 250.05349913 94.40401226 250.05197474 96.86187744 250.05014038 C104.10378378 250.04672031 111.34566793 250.05236859 118.58756876 250.06036568 C121.30762109 250.06321508 124.0276738 250.06536257 126.74772674 250.06753826 C145.29929785 250.08270826 163.85075677 250.12211081 182.4022522 250.17634583 C186.2007023 250.18718109 189.99915373 250.19693957 193.79760742 250.2064209 C207.14807885 250.24109638 220.49807136 250.29939668 233.84823608 250.39703369 C237.84842756 250.42580911 241.8485098 250.44573753 245.8487854 250.45794678 C250.50374401 250.47276912 255.1581691 250.50660392 259.8128891 250.55568314 C261.49228178 250.57037076 263.17174724 250.57853971 264.85120392 250.57941818 C275.202287 250.59012891 282.74494875 251.54717803 291.5625 257.3125 C297.23524875 263.24310096 300.39003678 270.68249905 300.48950195 278.87329102 C300.50233719 279.79848038 300.51517242 280.72366974 300.52839661 281.67689514 C300.53947701 283.16907814 300.53947701 283.16907814 300.55078125 284.69140625 C300.558853 285.72506821 300.56692474 286.75873016 300.57524109 287.82371521 C300.58906677 290.01340059 300.5997957 292.20310738 300.60766602 294.39282227 C300.61915763 296.61847302 300.63956435 298.84409683 300.66918945 301.06958008 C300.71215022 304.29787794 300.72807723 307.52535692 300.73828125 310.75390625 C300.76454338 312.22483482 300.76454338 312.22483482 300.79133606 313.72547913 C300.76817827 321.22362112 299.63651014 329.17986764 294.69819641 335.13380432 C281.86799378 347.29525001 262.95766571 346.60081076 246.57128906 346.4362793 C244.38236077 346.42555665 242.19342553 346.4161835 240.00448608 346.40805054 C234.09202214 346.38229046 228.17983375 346.33776101 222.26751423 346.28975272 C216.07763321 346.24271866 209.88766891 346.21309705 203.69769287 346.18159485 C191.98947648 346.11938047 180.28141776 346.04160276 168.57333541 345.95817453 C155.23843009 345.86391624 141.90344912 345.7870977 128.5684247 345.71171319 C101.14964752 345.55632241 73.73104616 345.37913077 46.3125 345.1875 C46.31803076 346.99174643 46.31803076 346.99174643 46.32367325 348.83244228 C46.41035312 377.40184337 46.47628631 405.97124264 46.51676132 434.54074555 C46.52176399 438.05914635 46.52694129 441.57754688 46.53222656 445.09594727 C46.5332758 445.79638094 46.53432505 446.49681462 46.53540608 447.21847356 C46.55279902 458.55149082 46.58433054 469.88442669 46.62111118 481.21739572 C46.65855162 492.8509135 46.6804431 504.48438389 46.68885398 516.11795908 C46.69406782 522.65034977 46.70631876 529.18255604 46.73542023 535.71488762 C46.76259684 541.86505757 46.77094029 548.01496736 46.76493073 554.16519165 C46.76602994 556.42061846 46.77397017 558.67605408 46.7893219 560.93142891 C46.80928444 564.0158371 46.80441581 567.09926879 46.79351807 570.18370056 C46.80516943 571.07185784 46.8168208 571.96001511 46.82882524 572.87508625 C46.751549 580.99177878 44.10904501 588.33757981 38.3125 594.1875 C35.47265625 595.953125 35.47265625 595.953125 32.375 597.4375 C31.35535156 597.93765625 30.33570313 598.4378125 29.28515625 598.953125 C23.91934259 601.1812421 18.83613983 601.34695544 13.08203125 601.35546875 C12.29156906 601.35879715 11.50110687 601.36212555 10.68669128 601.36555481 C9.01663797 601.3706047 7.34657462 601.37296374 5.67651367 601.37280273 C3.15070454 601.37497786 0.6253407 601.39312262 -1.90039062 601.41210938 C-10.01863661 601.44088662 -17.81502319 601.44302305 -25.6875 599.1875 C-27.13189453 598.77951172 -27.13189453 598.77951172 -28.60546875 598.36328125 C-35.91758236 595.58190929 -40.61523916 591.83182079 -44.5 585 C-47.88115162 574.14472374 -47.96886086 563.24990722 -47.92127991 551.99958801 C-47.92143621 550.27778571 -47.92247738 548.55598329 -47.92432016 546.83418196 C-47.92683927 542.12894703 -47.91695303 537.42380911 -47.9049722 532.71859181 C-47.89423872 527.63208446 -47.8951711 522.54557746 -47.8946991 517.45906067 C-47.89233999 508.64577116 -47.88277347 499.83251336 -47.86839485 491.01923561 C-47.84763703 478.2322188 -47.83901803 465.44521544 -47.8334735 452.65818401 C-47.82421941 431.85097109 -47.80677509 411.0437739 -47.78344727 390.23657227 C-47.78205395 388.99207358 -47.78066064 387.74757489 -47.7792251 386.46536412 C-47.77782957 385.21950474 -47.77643404 383.97364536 -47.77499622 382.69003266 C-47.7721752 380.17008444 -47.76935664 377.65013622 -47.76654053 375.13018799 C-47.7651452 373.88167479 -47.76374988 372.63316159 -47.76231227 371.34681465 C-47.74703159 357.53760791 -47.73410612 343.72839925 -47.72192383 329.91918945 C-47.72083298 328.68501153 -47.71974213 327.45083361 -47.71861822 326.17925636 C-47.70049358 305.4825034 -47.68656938 284.78574881 -47.67475218 264.08899134 C-47.6672242 251.36383805 -47.6555707 238.63870107 -47.63829052 225.91355719 C-47.62657739 217.15678847 -47.61848016 208.40002105 -47.61302502 199.64324621 C-47.60974663 194.61743906 -47.60487595 189.59164857 -47.59521103 184.5658493 C-47.55345437 162.26589203 -47.75936761 139.9947555 -48.38900546 117.70292908 C-48.77595567 103.94323212 -48.87617058 90.18702341 -48.87280273 76.42211914 C-48.87271989 73.68637713 -48.87995197 70.95079705 -48.89331055 68.21508789 C-49.01829581 42.03760249 -49.01829581 42.03760249 -47.92578125 29.73828125 C-47.86480759 28.97090134 -47.80383392 28.20352142 -47.74101257 27.41288757 C-47.01084418 20.59662181 -44.6121841 14.79248575 -39.625 10 C-27.83179667 0.75191106 -14.41682087 -0.13799476 0 0 Z " fill="#FDFDFE" transform="translate(1320.6875,1707.8125)"/>
<path d="M0 0 C1.90340003 0.00906391 3.80680186 0.01775517 5.71020508 0.02612305 C10.1766877 0.0494607 14.64299613 0.08283346 19.109375 0.12109375 C25.23694561 0.17318461 31.364491 0.21223919 37.4921875 0.24609375 C45.9590778 0.29347482 54.42577998 0.35444951 62.89248371 0.42803478 C67.66263162 0.4694319 72.43271619 0.5066473 77.20297241 0.53311157 C81.76735105 0.5590214 86.33138784 0.59957072 90.89555359 0.65049744 C92.59495413 0.66711977 94.29441124 0.67882021 95.99388123 0.68516541 C113.96960813 0.75900362 126.46691024 4.07194634 139.5 16.875 C146.63304132 24.07876011 154.41798792 32.29136013 154.4511652 42.9537611 C154.45663964 43.94090042 154.46211409 44.92803975 154.46775442 45.94509238 C154.46873253 47.03274604 154.46971064 48.12039971 154.47071838 49.24101257 C154.47565636 50.39490048 154.48059434 51.54878838 154.48568195 52.73764259 C154.49841425 55.94796827 154.50668782 59.15827044 154.51310861 62.36861384 C154.5211099 65.83199787 154.53481385 69.29535984 154.54782104 72.75872803 C154.57247909 79.56367716 154.59186695 86.36863182 154.60957379 93.17360219 C154.63057126 101.15590787 154.65702601 109.13819275 154.68374526 117.12048099 C154.73151653 131.44074279 154.77470611 145.76101471 154.81518555 160.08129883 C154.85406938 173.83456369 154.89547646 187.58781726 154.94018555 201.34106445 C154.94290982 202.17928018 154.94563409 203.01749591 154.94844092 203.88111212 C154.95941335 207.2552003 154.9703924 210.62928846 154.98138306 214.00337658 C155.02970329 228.85987437 155.07574485 243.71637937 155.12155947 258.57288507 C155.12883408 260.92587637 155.13616094 263.2788675 155.14350247 265.63185859 C155.15540075 269.44920364 155.1671578 273.26654911 155.17879411 277.08389498 C155.18338131 278.58659494 155.18799885 280.0892948 155.19264696 281.59199458 C155.2173488 289.61199819 155.23878721 297.63198538 155.25095463 305.65201855 C155.25548484 308.48296823 155.26017643 311.31391762 155.2649231 314.14486694 C155.26657747 315.18837556 155.26657747 315.18837556 155.26826527 316.25296516 C155.28327251 325.04223549 155.3269699 333.83074418 155.40499641 342.6196872 C155.4583186 348.62632841 155.49945132 354.6329676 155.53204415 360.6397568 C155.55597548 364.86003295 155.59687079 369.07967292 155.65102586 373.29966334 C155.68671286 376.49154431 155.69607528 379.68352442 155.70957947 382.87556458 C155.72963999 384.01094449 155.74970052 385.14632441 155.77036893 386.31610978 C155.76826428 394.21026336 154.42298518 399.23617728 149.45654297 405.54516602 C148.82893066 406.17092529 148.20131836 406.79668457 147.5546875 407.44140625 C146.85118164 408.14773193 146.14767578 408.85405762 145.42285156 409.58178711 C144.68518555 410.29729736 143.94751953 411.01280762 143.1875 411.75 C142.42920898 412.49580322 141.67091797 413.24160645 140.88964844 414.01000977 C125.00671327 429.39639137 125.00671327 429.39639137 114.31274414 429.4659729 C112.83812965 429.48271812 112.83812965 429.48271812 111.33372498 429.49980164 C109.73187096 429.50304192 109.73187096 429.50304192 108.09765625 429.50634766 C106.96332657 429.51639328 105.82899689 429.5264389 104.66029358 429.53678894 C100.89853404 429.56773498 97.13684702 429.58471447 93.375 429.6015625 C90.73876354 429.62029993 88.10253292 429.63987521 85.46630859 429.6602478 C79.92141423 429.70176858 74.37651437 429.73623001 68.83154297 429.765625 C61.11921397 429.80651073 53.40700375 429.85926744 45.69476891 429.91490483 C18.04470092 430.11276007 18.04470092 430.11276007 5.52050781 430.14678955 C0.50261531 430.16401376 -4.51142838 430.23669697 -9.52832031 430.33709717 C-12.10481758 430.37366626 -14.68131497 430.41022658 -17.2578125 430.44677734 C-18.42811005 430.47973719 -19.59840759 430.51269703 -20.8041687 430.54665565 C-38.12926881 430.73406416 -51.15823357 422.49760129 -63.6875 411.1875 C-71.61561811 403.38073064 -77.32512962 395.6046524 -77.8151505 384.22242951 C-77.816397 383.17298716 -77.81764349 382.12354481 -77.81892776 381.04230118 C-77.82276891 379.82430022 -77.82661005 378.60629925 -77.8305676 377.35138917 C-77.82978746 376.00820551 -77.8289087 374.66502191 -77.82794189 373.32183838 C-77.83052719 371.88835564 -77.83354081 370.45487361 -77.8369453 369.02139258 C-77.8449991 365.0865035 -77.84680396 361.15163267 -77.84754276 357.21673632 C-77.84939611 352.97120711 -77.85694482 348.72568732 -77.86367798 344.48016357 C-77.87724979 335.19915299 -77.88328408 325.91814673 -77.88768864 316.63712788 C-77.89045271 310.84084545 -77.89469034 305.04456469 -77.89919281 299.24828339 C-77.91138342 283.19623545 -77.9216835 267.14418885 -77.9250679 251.09213638 C-77.92528747 250.06513401 -77.92550703 249.03813164 -77.92573325 247.98000799 C-77.92606067 246.43584993 -77.92606067 246.43584993 -77.9263947 244.86049676 C-77.92683817 242.77451086 -77.92728473 240.68852496 -77.92773438 238.60253906 C-77.9279558 237.56782124 -77.92817723 236.53310341 -77.92840537 235.4670305 C-77.93235362 218.69997789 -77.94980937 201.93296874 -77.9730939 185.16593292 C-77.99681337 167.94656399 -78.00927001 150.72721687 -78.01043582 133.50783134 C-78.01135218 123.84172686 -78.01709491 114.17567902 -78.03525543 104.50959015 C-78.05066437 96.27915503 -78.05577215 88.04879405 -78.04751733 79.81834725 C-78.0436138 75.62065846 -78.04452594 71.42311897 -78.05857468 67.22544861 C-78.07133114 63.37866514 -78.07010089 59.53214288 -78.05798396 55.68535969 C-78.05603 54.29775003 -78.0590915 52.91012175 -78.06782833 51.52253821 C-78.13897083 39.4544556 -76.7676305 30.40812739 -68.6875 21.1875 C-68.23117187 20.60355469 -67.77484375 20.01960938 -67.3046875 19.41796875 C-51.46693982 1.05115665 -22.30579979 -0.17676724 0 0 Z " fill="#3DC4A6" transform="translate(846.6875,1943.8125)"/>
<path d="M0 0 C1.168937 -0.00297112 2.33787401 -0.00594224 3.54223335 -0.0090034 C6.76939022 -0.01615091 9.99651454 -0.01886015 13.22367811 -0.01960087 C16.71123309 -0.02146021 20.19877672 -0.02901189 23.68632507 -0.03573608 C31.30431541 -0.04928399 38.92230047 -0.05533852 46.54030085 -0.05974674 C51.30242047 -0.06251504 56.06453808 -0.06675344 60.82665634 -0.07125092 C74.02733037 -0.08343871 87.2280028 -0.09373915 100.42868233 -0.09712601 C101.27258392 -0.09734557 102.11648551 -0.09756514 102.98595988 -0.09779136 C103.83180872 -0.09800964 104.67765756 -0.09822791 105.54913819 -0.09845281 C107.26297323 -0.09889626 108.97680827 -0.09934283 110.69064331 -0.09979248 C111.96580843 -0.10012463 111.96580843 -0.10012463 113.26673447 -0.10046348 C127.03372705 -0.10440939 140.80066664 -0.12185928 154.56763877 -0.145152 C168.72249707 -0.16890651 182.87732882 -0.18132971 197.03220737 -0.18249393 C204.97137204 -0.18340836 212.91046763 -0.18910207 220.84961319 -0.20731354 C227.61122021 -0.22276994 234.37273678 -0.22780248 241.13435812 -0.21957543 C244.57916957 -0.2156885 248.0237992 -0.21650177 251.46858788 -0.23063278 C289.27302538 -0.35944856 289.27302538 -0.35944856 301.04904175 10.39044189 C306.64129625 16.49340457 307.41097008 21.78426409 307.32247925 29.80841064 C307.31799271 30.55216446 307.31350616 31.29591827 307.30888367 32.06221008 C307.2917557 34.4217453 307.26533073 36.78102212 307.23654175 39.14044189 C307.22853546 39.88966919 307.22052917 40.63889648 307.21228027 41.41082764 C307.16163714 45.88379557 307.08085636 50.35523448 306.97409058 54.82720947 C306.94044857 56.34011527 306.91254542 57.85315855 306.8901062 59.36627197 C306.50836005 84.69418169 294.05398379 98.57147356 277.631073 116.46856689 C274.49011901 119.97331816 271.53163573 123.60774636 268.5763855 127.26934814 C266.04920962 130.37030687 263.46042828 133.41222638 260.86154175 136.45294189 C257.06028182 140.91093972 253.39051346 145.44955048 249.79904175 150.07794189 C246.07061185 154.8820085 242.22291551 159.54828307 238.23654175 164.14044189 C233.23660626 169.90214935 228.49424927 175.82729136 223.8107605 181.84747314 C220.82934805 185.67661782 217.75629976 189.42735224 214.67404175 193.17559814 C207.63100557 201.74236811 200.61884046 210.33198867 193.79904175 219.07794189 C189.04692046 225.17024745 184.15252108 231.1382197 179.22824097 237.09185791 C175.47101274 241.6353498 171.75789676 246.20946677 168.08810425 250.82403564 C164.51283469 255.29689397 160.86859553 259.71368233 157.23654175 264.14044189 C155.73625858 265.97354351 154.23625767 267.80687617 152.73654175 269.64044189 C151.99146362 270.55052002 151.2463855 271.46059814 150.47872925 272.39825439 C149.00249314 274.20368601 147.52847439 276.0109333 146.05685425 277.82012939 C139.74544134 285.56901713 133.29246188 293.19189034 126.82052612 300.80645752 C125.41673371 302.45877749 124.01384546 304.11185833 122.61154175 305.76544189 C122.15352173 306.30523682 121.69550171 306.84503174 121.22360229 307.40118408 C118.32954747 310.82128962 115.4904509 314.28081616 112.67404175 317.76544189 C108.85801989 322.45894471 104.82631536 326.91178011 100.7326355 331.36309814 C95.61692904 337.05522224 90.81399765 343.00883651 86.23654175 349.14044189 C87.21651831 348.92998041 87.21651831 348.92998041 88.21629238 348.71526718 C97.69995595 346.89020877 106.9746715 346.81898618 116.59030151 346.78985596 C118.41657061 346.77726015 120.2428342 346.76384508 122.0690918 346.74967957 C126.99662534 346.71403311 131.9241456 346.69052415 136.85176206 346.66986179 C140.97699903 346.65136251 145.10218915 346.62664435 149.22739261 346.60189128 C158.96242499 346.5434915 168.69747179 346.49472821 178.43258667 346.45245361 C188.45402455 346.40880451 198.47530278 346.35071326 208.49661976 346.28520608 C217.12452945 346.22921325 225.75245727 346.18128166 234.38044971 346.13995719 C239.5232235 346.1153035 244.6659408 346.08786997 249.80865669 346.05304718 C254.64403033 346.020733 259.47934916 345.99857601 264.31480789 345.98404121 C266.08241576 345.97710051 267.85001421 345.9667095 269.61757851 345.95248985 C298.04667426 345.73056178 298.04667426 345.73056178 308.1232605 354.84747314 C317.43827697 365.1999975 315.44735949 380.02379652 315.47677612 393.08355713 C315.48653504 395.70114299 315.51767504 398.3179593 315.54904175 400.93536377 C315.62244223 412.3579321 315.6782171 422.70383944 307.30685425 431.39044189 C296.81714584 440.25721429 282.94415145 441.62766441 269.74581909 441.42169189 C267.7386287 441.39047435 265.73223286 441.38069081 263.724823 441.37481689 C258.2413723 441.33151225 252.88621258 441.2090713 247.43563843 440.64022827 C237.32531901 439.79111918 227.17133159 439.9872737 217.03341675 439.98272705 C214.68661403 439.97805227 212.33981222 439.97290763 209.99301147 439.96733093 C204.9578561 439.95609779 199.92270648 439.94764087 194.88754272 439.9412117 C186.91889391 439.93048405 178.9502821 439.91024676 170.98165894 439.88809204 C168.24807752 439.88061464 165.51449594 439.87320062 162.78091431 439.86580467 C162.09799104 439.86395411 161.41506777 439.86210354 160.71144986 439.8601969 C152.95809901 439.83931922 145.20474372 439.82046577 137.4513855 439.80255127 C136.7435717 439.80091309 136.03575789 439.79927491 135.30649519 439.79758708 C123.83082075 439.77128929 112.35514312 439.75264778 100.87945127 439.73595937 C89.06808624 439.71850663 77.25678385 439.68963317 65.4454689 439.65107 C58.82548285 439.62983907 52.2055644 439.6145479 45.58554077 439.61226273 C39.36049955 439.61011101 33.13564432 439.59418798 26.91065979 439.567873 C24.6323194 439.56070045 22.35395643 439.55856907 20.0756073 439.56197548 C4.0396215 439.58211452 -11.3666114 439.57509577 -24.41970825 428.76934814 C-32.29422163 420.2946432 -32.38853685 409.24601419 -32.36502075 398.38653564 C-32.37281392 396.87538694 -32.38148715 395.36424255 -32.39099121 393.85310364 C-32.40582812 390.70207442 -32.40539593 387.5514938 -32.39480591 384.40045166 C-32.38319723 380.38323734 -32.41716021 376.36786163 -32.46349525 372.35095119 C-32.49309691 369.23569707 -32.49469711 366.12088021 -32.4884758 363.00551033 C-32.48949493 361.52526252 -32.49983246 360.04498787 -32.52009964 358.56487846 C-32.62860201 349.53855673 -31.94376572 343.10015953 -25.76345825 336.14044189 C-24.82196418 334.97905475 -23.88054347 333.81760812 -22.9392395 332.65606689 C-21.9897044 331.56325534 -21.03516727 330.47477214 -20.07595825 329.39044189 C-19.023486 328.18114485 -17.97141176 326.97150131 -16.91970825 325.76153564 C-16.39377075 325.15938232 -15.86783325 324.557229 -15.32595825 323.93682861 C-12.88444816 321.12985498 -10.47794731 318.29374362 -8.07595825 315.45294189 C-7.62277222 314.91790039 -7.16958618 314.38285889 -6.70266724 313.831604 C-3.80741928 310.4041375 -0.96338422 306.93881241 1.86154175 303.45294189 C5.43759476 299.0560511 9.18018524 294.85027993 12.99435425 290.65997314 C16.05879905 287.2164768 18.95035516 283.64490543 21.849823 280.06231689 C24.46044905 276.86632952 27.12385243 273.71981946 29.79904175 270.57794189 C33.62060644 266.08105961 37.36176189 261.53387618 41.0295105 256.90997314 C43.8052747 253.42675754 46.61344076 249.97056987 49.42404175 246.51544189 C49.97656616 245.83610596 50.52909058 245.15677002 51.09835815 244.45684814 C52.23661754 243.0575261 53.37496498 241.65827566 54.51339722 240.25909424 C56.22553364 238.15397665 57.93636144 236.04780324 59.646698 233.94122314 C65.13086884 227.18663109 70.61940439 220.43584947 76.13497925 213.70684814 C77.5597034 211.96698984 78.98148884 210.22472173 80.40060425 208.48028564 C84.92200442 202.92838968 89.5073423 197.4374926 94.14572144 191.98345947 C97.09588268 188.50840075 99.9930409 184.99609016 102.86154175 181.45294189 C106.43876354 177.05461404 110.18251716 172.84745336 113.9982605 168.65606689 C117.04171826 165.23549657 119.90742725 161.68322211 122.787323 158.12481689 C125.55464875 154.75282826 128.38801114 151.44378744 131.23654175 148.14044189 C134.79121389 144.01588578 138.30446805 139.86835877 141.73654175 135.64044189 C146.63554554 129.60815308 151.69573222 123.71793878 156.77731323 117.8394165 C157.7891146 116.66137974 158.79334123 115.47681104 159.79147339 114.28717041 C162.45947021 111.11884561 165.08381069 108.21218664 168.29904175 105.57794189 C172.51225515 101.98621782 176.44647027 98.51065634 178.23654175 93.14044189 C177.24593561 93.14320727 176.25532948 93.14597265 175.23470497 93.14882183 C151.11358568 93.21546702 126.99247836 93.26474127 102.87128639 93.29587841 C91.20638376 93.31133692 79.54154202 93.33240709 67.87667847 93.36676025 C57.70772522 93.39669363 47.53881608 93.41602428 37.36982 93.42270738 C31.98710824 93.42661294 26.60452262 93.43577054 21.22185135 93.45763206 C16.15102031 93.47805937 11.08036688 93.48426307 6.0094986 93.47976494 C4.15279804 93.48058735 2.29609128 93.48651565 0.43942642 93.49805832 C-13.03486266 93.57768719 -23.84860076 92.9081143 -34.76345825 84.14044189 C-41.66417471 77.23972543 -42.23038637 69.00883654 -42.23220825 59.77325439 C-42.23982178 58.69848846 -42.2474353 57.62372253 -42.25527954 56.51638794 C-42.26604163 54.25226148 -42.26894957 51.98808553 -42.26443481 49.72393799 C-42.26346307 46.28249313 -42.30512111 42.84328399 -42.34939575 39.40216064 C-42.35460407 37.19252983 -42.35729092 34.98289134 -42.35720825 32.77325439 C-42.37360352 31.75627472 -42.38999878 30.73929504 -42.40689087 29.6914978 C-42.32884873 21.51894858 -40.13864215 14.8670812 -34.587677 8.73809814 C-23.50224438 0.77360999 -13.38489625 -0.01070054 0 0 Z " fill="#FDFDFE" transform="translate(2540.763458251953,1869.8595581054688)"/>
<path d="M0 0 C6.18970569 4.16967958 10.16397912 8.7109781 12 16 C13.74401098 31.06437111 9.49630105 45.89602278 6.3125 60.5 C5.7751965 63.01791035 5.2393801 65.53613851 4.70507812 68.0546875 C3.65314122 73.00339996 2.59317577 77.9502774 1.52612305 82.89575195 C-1.49653654 96.92688224 -4.38657326 110.98613084 -7.26782227 125.046875 C-9.65088961 136.66769484 -12.17262351 148.24557006 -14.82006836 159.80883789 C-16.70973413 168.24464712 -18.1344925 176.71585233 -19.5 185.25 C-21.64749904 198.35405637 -23.87330463 211.53374129 -34 221 C-39.72112016 224.9816822 -49.30881968 223.58502941 -56 223 C-65.29015462 221.17045304 -73.26902617 215.96050871 -78.9375 208.375 C-82.38015453 202.74156531 -83.37029655 198.36895064 -83.3359375 191.7890625 C-83.33298676 190.96757721 -83.33003601 190.14609192 -83.32699585 189.29971313 C-83.14467679 179.00350898 -81.63123718 168.86923651 -80.11914062 158.69873047 C-79.62076619 155.34652218 -79.14082077 151.99206352 -78.6640625 148.63671875 C-78.35260667 146.47380772 -78.04014329 144.31104148 -77.7265625 142.1484375 C-77.58376862 141.16080414 -77.44097473 140.17317078 -77.29385376 139.15560913 C-76.52540828 134.00114819 -75.61200755 128.92834927 -74.41723633 123.85490417 C-73.90098635 121.55981583 -73.59792561 119.27821886 -73.375 116.9375 C-73.25125 115.638125 -73.1275 114.33875 -73 113 C-79.90959744 118.12647552 -85.93278733 123.79858727 -91.95214844 129.92089844 C-95.57832303 133.60270749 -99.27473237 137.09887515 -103.22265625 140.4375 C-105.1867308 142.16415895 -106.99117667 143.99870715 -108.8125 145.875 C-112.60257928 149.71649508 -116.67433178 153.07272968 -120.87890625 156.44921875 C-124.49721175 159.37642673 -127.99480698 162.43908368 -131.5 165.5 C-136.63192016 169.9757432 -141.83186943 174.34008478 -147.125 178.625 C-150.63547639 181.52495875 -154.06832727 184.50758138 -157.5 187.5 C-162.63227656 191.97534516 -167.83185274 196.34007126 -173.125 200.625 C-176.63547639 203.52495875 -180.06832727 206.50758138 -183.5 209.5 C-188.63227656 213.97534516 -193.83185274 218.34007126 -199.125 222.625 C-202.63547868 225.52496065 -206.06827142 228.50764252 -209.5 231.5 C-214.67925953 236.01481932 -219.91835832 240.4323793 -225.2578125 244.7578125 C-228.37000148 247.30253683 -231.43726497 249.89618225 -234.5 252.5 C-239.34948722 256.62113948 -244.25161123 260.66991612 -249.1875 264.6875 C-252.31799666 267.26146392 -255.41172461 269.87569086 -258.5 272.5 C-262.46907935 275.87278574 -266.46016863 279.21176517 -270.5 282.5 C-274.54910399 285.80057967 -278.56925295 289.13224335 -282.5625 292.5 C-283.38899048 293.19561035 -283.38899048 293.19561035 -284.23217773 293.90527344 C-287.60372072 296.76123941 -290.84587197 299.71894666 -294.0625 302.75 C-307.54604388 314.94419366 -320.85544699 317.45393148 -338.3605957 317.38476562 C-340.10450596 317.38887679 -341.84841347 317.39434087 -343.59231567 317.40104675 C-347.33159535 317.41272537 -351.07072762 317.41527267 -354.81002235 317.41069031 C-360.73313979 317.40384868 -366.65606529 317.41980398 -372.57914734 317.43908691 C-385.15692128 317.47686289 -397.73467804 317.48972601 -410.3125 317.5 C-423.88393473 317.51109226 -437.45528014 317.5265721 -451.02665395 317.57071257 C-456.90389533 317.5889795 -462.7809151 317.59299323 -468.65817797 317.58577728 C-472.32772344 317.58424612 -475.9971599 317.59509767 -479.66667557 317.60915565 C-481.35601704 317.6131289 -483.04537975 317.61208412 -484.7347126 317.60538292 C-504.23605433 317.53402462 -517.60202109 322.39825118 -533.625 333.5 C-544.34854816 340.78412121 -555.52347044 347.06932048 -566.88769531 353.28857422 C-571.86536482 356.02574579 -576.8078384 358.82437192 -581.75 361.625 C-583.17445435 362.4308252 -583.17445435 362.4308252 -584.62768555 363.25292969 C-593.46599957 368.25572032 -602.28371623 373.29427407 -611.09765625 378.33984375 C-614.2722513 380.15572921 -617.44849435 381.96870889 -620.625 383.78125 C-654.62668638 403.18441871 -688.53854541 422.71717632 -721.94140625 443.13720703 C-724.67248547 444.80053194 -727.41141412 446.44935844 -730.15625 448.08984375 C-738.9486479 453.36047841 -747.36997495 458.98253847 -755.70703125 464.9453125 C-791.63259793 490.60289128 -791.63259793 490.60289128 -807 489 C-816.63742003 487.04956976 -823.67123705 481.44604413 -829.390625 473.6015625 C-835.15153353 464.2890259 -837.44521299 454.90103513 -836 444 C-835.15953387 441.11840184 -833.95944938 439.25308445 -832 437 C-831.52175781 436.39285156 -831.04351563 435.78570313 -830.55078125 435.16015625 C-824.13125973 427.87508127 -815.36471632 423.65827326 -807 419 C-803.37291627 416.96202849 -799.74904562 414.91836804 -796.125 412.875 C-795.16021729 412.33238525 -794.19543457 411.78977051 -793.20141602 411.23071289 C-783.96874383 406.02159429 -774.85548521 400.6193441 -765.74633789 395.19798279 C-765.17520264 394.85807816 -764.60406738 394.51817352 -764.015625 394.16796875 C-763.44126709 393.82609024 -762.86690918 393.48421173 -762.27514648 393.13197327 C-755.74211663 389.24646356 -749.18453168 385.40304396 -742.625 381.5625 C-742.02620026 381.21179443 -741.42740051 380.86108887 -740.81045532 380.49975586 C-737.76989244 378.71895761 -734.72906037 376.93861994 -731.68798828 375.15869141 C-725.47844694 371.52424519 -719.27014627 367.88768195 -713.0625 364.25 C-712.14866547 363.71453049 -712.14866547 363.71453049 -711.21636963 363.16824341 C-702.59957366 358.11846758 -693.99462386 353.04903351 -685.40039062 347.9609375 C-678.27322265 343.74442311 -671.12908882 339.55728723 -663.98245239 335.37390137 C-654.85945078 330.03348042 -645.74714367 324.6792514 -636.6953125 319.21875 C-629.1109738 314.65201892 -621.47020921 310.17901071 -613.84521484 305.68066406 C-611.09926664 304.05863665 -608.35582569 302.43246209 -605.61328125 300.8046875 C-594.73077227 294.34987087 -583.80270068 287.97971357 -572.83544922 281.66992188 C-566.35899753 277.94271672 -559.895186 274.19517166 -553.44604492 270.42089844 C-550.44746619 268.66737708 -547.44481711 266.92100987 -544.44140625 265.17578125 C-541.07831596 263.22046896 -537.73228011 261.24164751 -534.40234375 259.23046875 C-533.03924981 258.42416243 -531.67598293 257.61814836 -530.3125 256.8125 C-528.63607422 255.80123047 -528.63607422 255.80123047 -526.92578125 254.76953125 C-516.31163281 249.44320752 -504.42210642 249.56751455 -492.84619141 249.61523438 C-491.16106806 249.61111988 -489.47594757 249.60565385 -487.79083252 249.59895325 C-484.18909834 249.58730895 -480.58751704 249.58471457 -476.98576736 249.58930969 C-471.28668763 249.59616463 -465.58780647 249.58017681 -459.88876343 249.56091309 C-446.77256804 249.51999752 -433.65637905 249.50850958 -420.54013062 249.49738312 C-408.49455952 249.48686596 -396.44908495 249.47008374 -384.40357339 249.42928743 C-378.74125805 249.41096244 -373.07917296 249.40702689 -367.41683507 249.41422272 C-363.89617064 249.41574604 -360.37562127 249.4049526 -356.8549881 249.39084435 C-355.22601379 249.38684762 -353.59701751 249.3879566 -351.96805191 249.39461708 C-349.7397838 249.40302708 -347.51230883 249.39297714 -345.28408813 249.37854004 C-344.03903818 249.37782753 -342.79398823 249.37711502 -341.51120949 249.37638092 C-327.31083104 247.85418422 -315.41188967 233.6017812 -305.9375 223.875 C-302.2350481 220.11943915 -298.2301004 216.85052445 -294.12109375 213.55078125 C-290.50278526 210.62357085 -287.00525058 207.5608546 -283.5 204.5 C-278.32110162 199.98477988 -273.08162378 195.56760621 -267.7421875 191.2421875 C-264.62999959 188.69746405 -261.56270126 186.10385619 -258.5 183.5 C-254.55353876 180.14547904 -250.58357765 176.82778038 -246.5625 173.5625 C-241.69870975 169.60491812 -236.94118769 165.53457554 -232.19165039 161.44165039 C-228.66701081 158.41054711 -225.10960118 155.43014684 -221.5 152.5 C-216.09923828 148.11287098 -210.825323 143.58776588 -205.55078125 139.05078125 C-197.38608208 132.0285598 -189.1566461 125.09398137 -180.796875 118.3046875 C-178.82847662 116.68268324 -176.88324876 115.04885249 -174.953125 113.3828125 C-173.88573375 112.46317352 -172.81802058 111.54390804 -171.75 110.625 C-171.22059814 110.16931641 -170.69119629 109.71363281 -170.14575195 109.24414062 C-165.21053926 105.05819963 -160.00513992 101.27957081 -154.67285156 97.61572266 C-153.06317027 96.48095262 -151.52380914 95.24771094 -150 94 C-150 93.01 -150 92.02 -150 91 C-156.64039141 90.70217514 -162.68112 90.76698682 -169.125 92.5 C-176.30021591 94.1906653 -183.33010798 94.37384269 -190.6875 94.4375 C-191.82783691 94.45941406 -192.96817383 94.48132812 -194.14306641 94.50390625 C-204.74038057 94.47932921 -213.60894761 92.25101527 -221.41015625 84.80078125 C-227.9523432 77.39058915 -227.55562624 68.34275241 -227 59 C-225.86742672 52.43491421 -223.12827211 47.26697346 -218 43 C-208.470966 37.29947246 -198.8660125 34.25764011 -188.125 31.8125 C-186.78217072 31.49444436 -185.43972055 31.17478387 -184.09765625 30.85351562 C-181.40229057 30.20991671 -178.70488623 29.57605269 -176.00585938 28.94799805 C-172.12863024 28.03963103 -168.27206511 27.0572836 -164.4140625 26.0703125 C-154.08851747 23.45591331 -143.6684288 21.27067931 -133.25 19.0625 C-132.21331177 18.84178833 -131.17662354 18.62107666 -130.10852051 18.39367676 C-116.92920835 15.59175976 -103.7505851 12.96576842 -90.4699707 10.68725586 C-75.81374521 8.14821489 -61.23933128 5.03594417 -46.90234375 1.0625 C-13.36340492 -8.22737862 -13.36340492 -8.22737862 0 0 Z " fill="#39A9C2" transform="translate(1022,1635)"/>
<path d="M0 0 C1.16237686 0.00850983 2.32475372 0.01701965 3.52235413 0.02578735 C6.28383921 0.0467532 9.04506908 0.07175702 11.80645752 0.10119629 C17.51393366 0.15938484 23.22151671 0.18783329 28.92919922 0.21777344 C39.49088135 0.27499271 50.05233578 0.34993704 60.61382103 0.43600082 C66.79615441 0.48619189 72.97846492 0.53267939 79.16088867 0.5703125 C85.22978105 0.60732477 91.29853696 0.65365837 97.36731148 0.70650101 C99.65360721 0.72487375 101.93993126 0.74004306 104.22627068 0.75178146 C135.14276359 0.91670012 135.14276359 0.91670012 145.93359375 6.7109375 C146.94075439 7.23602905 146.94075439 7.23602905 147.96826172 7.77172852 C159.41488283 13.9874556 168.04251579 22.76283526 171.87979126 35.33821106 C174.96371118 46.63153337 174.28795663 58.38229901 174.23193359 69.98706055 C174.23408266 72.58060904 174.23796511 75.17415659 174.24343872 77.7677002 C174.25345612 84.04831059 174.24232479 90.3287082 174.22373812 96.60929211 C174.20283962 103.93779711 174.20311392 111.26625767 174.20408328 118.59478686 C174.2050817 131.67692395 174.18683667 144.7589628 174.15771484 157.84106445 C174.1295284 170.50970244 174.1153743 183.17825405 174.11669922 195.84692383 C174.11681909 197.01816603 174.11681909 197.01816603 174.11694138 198.2130697 C174.11702209 198.99260441 174.1171028 199.77213913 174.11718595 200.5752961 C174.11856853 215.03917866 174.10677132 229.50302485 174.08887952 243.96689558 C174.08286913 249.06501031 174.08072308 254.16311831 174.07981491 259.26123619 C174.0783016 266.13058575 174.06554267 272.99984356 174.04548264 279.86916351 C174.03966095 282.3845572 174.03717614 284.89996125 174.03833771 287.4153614 C174.03932584 290.85896715 174.02794252 294.30232442 174.01351929 297.74589539 C174.01661649 298.73181079 174.0197137 299.7177262 174.02290475 300.73351783 C173.95062532 311.24376609 173.50003727 323.04577013 165.94140625 331.0625 C163.61680554 333.19977025 161.21556859 335.18001552 158.74609375 337.1484375 C158.23272461 337.56448242 157.71935547 337.98052734 157.19042969 338.40917969 C145.13728693 348.15076082 134.90677714 353.43178019 119.17211914 353.46728516 C118.14131226 353.47733078 117.11050537 353.4873764 116.04846191 353.49772644 C112.6468964 353.52854336 109.24541093 353.54562315 105.84375 353.5625 C103.44558581 353.5812565 101.04742791 353.60083306 98.64927673 353.6211853 C92.3211964 353.67252397 85.99309369 353.71206408 79.66491699 353.74932861 C73.34751568 353.78882362 67.03021402 353.84039394 60.71289062 353.890625 C49.90995592 353.97511781 39.10704089 354.03959252 28.30390358 354.09157181 C22.41228691 354.12176232 16.52144914 354.16854389 10.63025379 354.24531746 C7.54434047 354.28428531 4.45839307 354.31228117 1.37234306 354.33787155 C-0.60102635 354.35839443 -2.57421587 354.39446019 -4.54734802 354.43130493 C-19.25161263 354.52864741 -30.0755306 349.6333667 -40.50390625 339.3984375 C-51.10111186 328.60093819 -55.74685285 317.31272474 -55.62139893 302.18295288 C-55.62466777 301.12397407 -55.62793661 300.06499526 -55.6313045 298.97392619 C-55.63854833 295.44910277 -55.62446285 291.92469996 -55.61035156 288.39990234 C-55.61114299 285.86284311 -55.61324193 283.32578401 -55.61654663 280.78872681 C-55.62114032 274.6257585 -55.61189732 268.46294461 -55.59625867 262.29999869 C-55.57865318 255.10811626 -55.57729795 247.91625756 -55.57664308 240.72435696 C-55.57495705 227.87919941 -55.55917066 215.03409844 -55.53515625 202.18896484 C-55.51192963 189.75601736 -55.49773518 177.32310573 -55.49414062 164.89013672 C-55.49391786 164.12519155 -55.49369509 163.36024639 -55.49346557 162.57212107 C-55.49302293 161.03086035 -55.49258091 159.48959963 -55.4921395 157.9483389 C-55.49191994 157.18783753 -55.49170037 156.42733616 -55.49147415 155.64378929 C-55.49125817 154.88507433 -55.49104218 154.12635936 -55.49081965 153.34465303 C-55.48710535 141.45722719 -55.47574407 129.56980704 -55.46334375 117.68238752 C-55.45892961 113.39113463 -55.45548265 109.09988226 -55.45272163 104.80862801 C-55.44784185 97.35226938 -55.43764651 89.8959469 -55.42189407 82.4396019 C-55.41740396 79.97265366 -55.41454028 77.5057018 -55.41348648 75.03874969 C-55.39091446 31.85073447 -55.39091446 31.85073447 -43.25390625 18.1484375 C-42.58359375 17.38402344 -41.91328125 16.61960937 -41.22265625 15.83203125 C-29.40211559 3.17634369 -16.82655234 -0.25019859 0 0 Z " fill="#3D87E8" transform="translate(534.25390625,2019.8515625)"/>
<path d="M0 0 C0.859422 -0.00570007 1.71884399 -0.01140015 2.60430908 -0.01727295 C4.41978739 -0.02669706 6.2352826 -0.03324661 8.05078125 -0.03710938 C10.8049972 -0.04679368 13.55845958 -0.07783266 16.3125 -0.109375 C18.08332894 -0.11590824 19.85416318 -0.12115745 21.625 -0.125 C22.43781433 -0.1373468 23.25062866 -0.1496936 24.08807373 -0.16241455 C31.54290025 -0.13387841 38.98872746 1.36995509 44.66796875 6.54296875 C47.67072332 10.07806762 49.812239 14.17639987 52.078125 18.203125 C53.068125 19.688125 53.068125 19.688125 54.078125 21.203125 C56.99496523 19.82481989 59.57398292 18.24135132 62.203125 16.375 C66.37224283 13.44227383 70.57601583 10.56841982 74.81054688 7.73095703 C76.61788951 6.51321907 78.40614751 5.26716944 80.1875 4.01171875 C86.22506132 0.30522771 91.48497505 -0.08457944 98.35546875 0.05078125 C100.42268725 0.07152583 102.48990746 0.09210059 104.55712891 0.11254883 C106.31962982 0.13570663 106.31962982 0.13570663 108.11773682 0.15933228 C112.57123657 0.20857767 117.02430401 0.22731947 121.47802734 0.2409668 C129.4926524 0.26702042 137.50680823 0.3180382 145.52117729 0.38706493 C150.19846175 0.42678108 154.87554474 0.45890419 159.55297852 0.47412109 C164.15090081 0.48932247 168.74831768 0.52376201 173.34601402 0.57143402 C175.07655133 0.58613668 176.80716023 0.59415954 178.53775978 0.59500885 C189.14472353 0.60548463 198.51128902 1.01516047 207.453125 7.390625 C213.61479937 13.99241897 214.68868176 21.25610193 214.7578125 30.01171875 C214.7790921 31.0184816 214.8003717 32.02524445 214.82229614 33.06251526 C214.86295796 35.17929835 214.89438273 37.29627721 214.91699219 39.41333008 C214.95299041 42.62860365 215.02101969 45.84200987 215.09375 49.05664062 C215.1295025 51.12496806 215.16341749 53.19332824 215.1953125 55.26171875 C215.21496063 56.20994003 215.23460876 57.15816132 215.25485229 58.13511658 C215.33671526 68.40789676 214.10856009 77.34469434 207.078125 85.203125 C196.88232849 94.13175751 185.17160028 94.64365062 172.203125 94.64453125 C170.66868862 94.6563406 169.13426356 94.6697133 167.59985352 94.68455505 C163.57583485 94.72054224 159.55191636 94.740867 155.527771 94.75610352 C108.72235449 93.02358071 108.72235449 93.02358071 68.1484375 112.9765625 C52.24951345 130.07540535 53.79171573 154.20836848 53.91455078 175.86816406 C53.92167271 178.45495367 53.92784202 181.04174605 53.93313599 183.62854004 C53.94566238 189.1755316 53.96509659 194.72246288 53.98892593 200.26941681 C54.02306023 208.30001394 54.04203729 216.33059655 54.05668341 224.36125037 C54.08051153 237.40849445 54.11038624 250.45571517 54.14697266 263.50292969 C54.1491529 264.28191186 54.15133315 265.06089404 54.15357946 265.86348173 C54.18483085 276.92919858 54.22203632 287.99488766 54.26157521 299.0605776 C54.26575515 300.23087001 54.26575515 300.23087001 54.27001953 301.42480469 C54.27420012 302.5936567 54.27420012 302.5936567 54.27846517 303.78612188 C54.32458213 316.79303907 54.35518015 329.79993826 54.37313831 342.80692458 C54.38481665 350.8154344 54.40948221 358.82369431 54.45108388 366.83210561 C54.48181642 372.96748005 54.49170704 379.10272713 54.49396896 385.23817444 C54.49825785 387.7495973 54.50942038 390.26101944 54.5280304 392.77237701 C54.55248696 396.20595482 54.5520837 399.63868734 54.54568481 403.07232666 C54.55870042 404.06085892 54.57171602 405.04939118 54.58512604 406.06787896 C54.51703358 415.48531006 51.70436739 423.50212123 45.2109375 430.4453125 C37.92219858 436.45251491 29.45205021 438.35249929 20.26953125 438.40625 C19.50696518 438.41195007 18.74439911 438.41765015 17.95872498 438.42352295 C16.34237038 438.43295875 14.72599667 438.43950129 13.10961914 438.44335938 C10.68013996 438.45296871 8.25154296 438.48396351 5.82226562 438.515625 C-7.83279755 438.61047978 -20.32371236 437.79288037 -30.921875 428.203125 C-40.23097403 418.08167535 -39.07149972 404.7225899 -39.06904602 391.88883972 C-39.07234897 390.32234984 -39.07607545 388.7558608 -39.0801875 387.18937284 C-39.09016578 382.89608503 -39.09391751 378.6028112 -39.09657681 374.30951345 C-39.10049205 369.67476588 -39.1100692 365.04002925 -39.11878967 360.4052887 C-39.13851501 349.22123314 -39.14861323 338.03717673 -39.15751746 326.85310814 C-39.16190497 321.5831609 -39.16727041 316.31321466 -39.17250633 311.0432682 C-39.18951122 293.52166928 -39.20400644 276.00007098 -39.21125507 258.47846508 C-39.21316487 253.93575731 -39.21508522 249.39304955 -39.21704102 244.8503418 C-39.21776663 243.15680552 -39.21776663 243.15680552 -39.2185069 241.42905638 C-39.22681138 223.13022854 -39.25215869 204.83146597 -39.28462169 186.53266665 C-39.31769424 167.73686269 -39.33570383 148.94109193 -39.33889931 130.14525872 C-39.34106373 119.59549265 -39.34980298 109.04582191 -39.37536049 98.49608421 C-39.39706973 89.51436236 -39.4051166 80.53275902 -39.39539371 71.55101391 C-39.3908503 66.97037516 -39.39273785 62.38998095 -39.41215515 57.80937576 C-39.42979578 53.61160397 -39.42878194 49.41425496 -39.41325786 45.21647862 C-39.41088322 43.70239501 -39.41519791 42.18828204 -39.42708651 40.67424323 C-39.52125926 27.88331366 -37.65149082 17.83628452 -28.5625 8.37109375 C-20.23374523 1.5331368 -10.39656026 0.05382325 0 0 Z " fill="#FDFDFE" transform="translate(2226.921875,1870.796875)"/>
<path d="M0 0 C2.22889087 0.01613544 4.45597647 0.00000902 6.68481445 -0.01904297 C19.2563703 -0.0383294 31.2409114 1.69519961 43.10083008 6.07861328 C43.79837402 6.3313501 44.49591797 6.58408691 45.21459961 6.84448242 C81.18833221 20.30126321 108.63250837 46.7519952 124.66333008 81.39111328 C139.11201412 114.20718982 137.42363397 150.41130349 124.8815918 183.39990234 C119.58402467 196.40707517 112.75278099 208.66096726 103.66333008 219.39111328 C102.62305664 220.65568359 102.62305664 220.65568359 101.56176758 221.94580078 C82.03344381 244.74068053 50.89976549 262.99283611 20.66333008 265.39111328 C-18.42171815 267.15002753 -51.08733497 258.93068019 -81.33666992 233.39111328 C-82.58770508 232.34310547 -82.58770508 232.34310547 -83.86401367 231.27392578 C-107.13025289 211.12658149 -122.20380043 180.76310079 -126.33666992 150.39111328 C-126.69908929 145.19360847 -126.71423684 140.03656971 -126.64916992 134.82861328 C-126.65239258 133.53503906 -126.65561523 132.24146484 -126.65893555 130.90869141 C-126.59553934 119.4109239 -125.55144008 108.04183244 -122.14916992 97.01611328 C-121.93631348 96.31260742 -121.72345703 95.60910156 -121.50415039 94.88427734 C-110.87760777 61.0334145 -89.32581483 32.06432958 -58.33666992 14.39111328 C-52.48809592 11.39242171 -46.46283567 8.76757032 -40.33666992 6.39111328 C-39.68408203 6.13313965 -39.03149414 5.87516602 -38.35913086 5.609375 C-25.93984516 1.07054084 -13.11507341 -0.11242727 0 0 Z " fill="#030034" transform="translate(1900.336669921875,1956.60888671875)"/>
<path d="M0 0 C0.79341797 0.22574707 1.58683594 0.45149414 2.40429688 0.68408203 C25.0106414 7.24026011 42.87795208 17.84177597 60 34 C60.73734375 34.67289063 61.4746875 35.34578125 62.234375 36.0390625 C79.3832587 52.27577154 90.88814097 74.37426437 97 97 C97.33773437 98.18335937 97.67546875 99.36671875 98.0234375 100.5859375 C102.85404089 121.01628763 101.4351223 144.86280489 96 165 C95.81808105 165.68400879 95.63616211 166.36801758 95.44873047 167.07275391 C89.52276471 188.52591502 77.40658955 207.20423954 62 223 C61.30777344 223.76570313 60.61554687 224.53140625 59.90234375 225.3203125 C48.8947905 237.15502294 34.63577766 245.46796214 20 252 C19.38979004 252.28069336 18.77958008 252.56138672 18.15087891 252.85058594 C2.51713682 259.97705414 -12.68408848 262.36116693 -29.8125 262.375 C-31.74222656 262.37765869 -31.74222656 262.37765869 -33.7109375 262.38037109 C-45.34761735 262.24460983 -56.83997048 261.25493209 -67.875 257.375 C-68.62765137 257.11557617 -69.38030273 256.85615234 -70.15576172 256.58886719 C-78.13010371 253.74291834 -85.61951439 250.13321748 -93 246 C-94.00957764 245.43539062 -94.00957764 245.43539062 -95.03955078 244.859375 C-105.25055105 239.04528232 -113.66796084 232.24942687 -122 224 C-122.66257812 223.39800781 -123.32515625 222.79601563 -124.0078125 222.17578125 C-146.85649796 201.08059956 -157.77066463 165.29411518 -159.12548828 135.21386719 C-159.54143352 122.76059218 -159.07504348 111.10178401 -156 99 C-155.75056641 97.99259766 -155.75056641 97.99259766 -155.49609375 96.96484375 C-148.2673434 68.31757385 -133.0305615 41.70327859 -109 24 C-108.47325684 23.59974609 -107.94651367 23.19949219 -107.40380859 22.78710938 C-90.88133644 10.2325376 -73.52541828 1.83555796 -53 -2 C-52.25403564 -2.17273437 -51.50807129 -2.34546875 -50.73950195 -2.5234375 C-35.19444597 -5.22764829 -15.02025921 -4.37831207 0 0 Z " fill="#030034" transform="translate(3628,1959)"/>
<path d="M0 0 C1.42351039 -0.00435476 2.84701844 -0.00954044 4.27052307 -0.01548767 C8.11354092 -0.02880584 11.95646 -0.02946447 15.79949641 -0.02692437 C19.01751345 -0.02584991 22.23551089 -0.03075006 25.4535237 -0.03552979 C33.04976007 -0.04659983 40.64594698 -0.04707631 48.2421875 -0.04101562 C56.05787083 -0.03497542 63.87337415 -0.04729374 71.68902677 -0.06858569 C78.41968137 -0.08624218 85.15027887 -0.09219674 91.88095576 -0.08894795 C95.89195411 -0.08714162 99.90282399 -0.08970603 103.91380119 -0.10366249 C107.68715255 -0.11630263 111.46022459 -0.11423884 115.23357201 -0.1012516 C117.26406976 -0.09778559 119.29457631 -0.10901758 121.32504272 -0.12081909 C137.7372482 -0.02716491 149.75379331 6.21102478 161.73461914 17.2746582 C173.21379906 29.64398455 179.04018549 40.57014741 179.02514648 57.44140625 C179.03186371 58.5335997 179.03858093 59.62579315 179.04550171 60.75108337 C179.06443116 64.34622809 179.0684036 67.94118556 179.07055664 71.53637695 C179.0769888 74.04970881 179.08371747 76.56303993 179.09072876 79.07637024 C179.10268944 84.3409648 179.10649689 89.60551231 179.10522461 94.87011719 C179.10402548 100.92431566 179.12509133 106.97815635 179.15671194 113.03226441 C179.18619617 118.88953838 179.19319578 124.74667284 179.19200516 130.60401344 C179.19435342 133.08014192 179.20313287 135.55627351 179.21866989 138.03235435 C179.39455501 168.96168896 179.39455501 168.96168896 168.73461914 182.2746582 C168.09782227 183.08547852 167.46102539 183.89629883 166.80493164 184.73168945 C159.07850678 193.94396524 148.0515041 203.42834623 135.64462852 204.55534172 C131.83861991 204.67193942 128.03859158 204.69217666 124.23144531 204.67871094 C122.77029399 204.68442105 121.30914712 204.69138779 119.8480072 204.69950867 C115.89739029 204.71738743 111.94699615 204.71628136 107.996351 204.71056628 C104.68899844 204.70746582 101.38168813 204.7135766 98.0743416 204.71960503 C90.26567083 204.73363219 82.4571095 204.73210493 74.6484375 204.72070312 C66.61518081 204.70923197 58.58225838 204.72328471 50.54904574 204.7500996 C43.63239777 204.77231583 36.71585426 204.77888044 29.79917318 204.77302319 C25.67687271 204.76966552 21.55478628 204.77198852 17.4325161 204.78927422 C13.55239833 204.80483544 9.6727721 204.80068734 5.79267311 204.78196907 C4.37662469 204.77830795 2.9605391 204.78131858 1.54452515 204.79185486 C-11.80085996 204.88349742 -21.25917308 202.2155663 -31.26538086 193.2746582 C-31.88155273 192.75129883 -32.49772461 192.22793945 -33.13256836 191.6887207 C-45.60538076 180.32460274 -50.85876861 162.60802414 -52.26538086 146.2746582 C-52.4240294 141.3691494 -52.40096253 136.46705485 -52.36694336 131.55981445 C-52.36136319 130.11319628 -52.35619595 128.66657646 -52.35140991 127.21995544 C-52.33312804 122.57143717 -52.29990475 117.9230796 -52.26538086 113.2746582 C-52.25459854 111.70166043 -52.24385635 110.12866238 -52.2331543 108.55566406 C-52.16529134 98.94283001 -52.06636204 89.33059837 -51.94799805 79.71826172 C-51.90785994 76.42304756 -51.87340868 73.12784224 -51.84350586 69.83251953 C-51.80648006 65.75486283 -51.76019551 61.6774089 -51.70731735 57.5999279 C-51.6890177 56.07592153 -51.67382343 54.55187408 -51.6620369 53.02780342 C-51.53110692 36.77680522 -49.54548407 24.6294435 -37.95288086 12.3996582 C-26.41663473 1.60768602 -15.32785258 -0.02883026 0 0 Z " fill="#4C63E2" transform="translate(233.265380859375,2169.725341796875)"/>
<path d="M0 0 C1.13862236 -0.00972839 1.13862236 -0.00972839 2.30024719 -0.01965332 C3.96751977 -0.02116551 5.63475173 0.02936239 7.30078125 0.09375 C9.34799283 2.14096158 8.45126019 6.47175929 8.45227051 9.28634644 C8.45650292 10.15584242 8.46073533 11.0253384 8.465096 11.92118275 C8.47819651 14.85875236 8.48416416 17.79629477 8.49023438 20.73388672 C8.49817187 22.83125985 8.50655943 24.92863132 8.5153656 27.02600098 C8.53347249 31.55768224 8.54847127 36.08935972 8.56114197 40.62105942 C8.58134369 47.8010363 8.60900629 54.9809724 8.63781738 62.16091919 C8.69801346 77.43017688 8.74967003 92.69945965 8.80078125 107.96875 C8.85591546 124.39105705 8.91274171 140.81335152 8.97833014 157.23562062 C9.00649473 164.35634799 9.03015911 171.47707125 9.05025482 178.59782577 C9.06377382 183.05865858 9.08117936 187.51947049 9.09956551 191.98028564 C9.10723325 194.02992337 9.11334029 196.07956772 9.11765862 198.12921524 C9.14252195 209.50064096 9.38989893 220.81491172 10.07450581 232.16697693 C10.34235027 236.8151368 10.46159095 241.44675738 10.46875 246.1015625 C10.4737426 247.33252151 10.4737426 247.33252151 10.47883606 248.58834839 C10.48379838 250.28659522 10.48624781 251.9848514 10.48608398 253.68310547 C10.48828675 256.22510153 10.50660315 258.76667266 10.52539062 261.30859375 C10.52832406 262.98958191 10.53030919 264.67057205 10.53125 266.3515625 C10.53843552 267.07916779 10.54562103 267.80677307 10.55302429 268.556427 C10.5186962 276.79325973 9.33835853 284.93552624 8.30078125 293.09375 C-3.39918183 293.16315096 -15.09909623 293.21651078 -26.79922295 293.24918652 C-32.23161953 293.26486639 -37.66387567 293.28614695 -43.09619141 293.32006836 C-48.3351696 293.3525791 -53.5740124 293.3705855 -58.81308365 293.37838173 C-60.81545266 293.38394017 -62.81781396 293.39479391 -64.82012558 293.41094017 C-67.61706516 293.43260442 -70.41343974 293.43572157 -73.21044922 293.43432617 C-74.46201309 293.45050491 -74.46201309 293.45050491 -75.73886108 293.4670105 C-78.04196167 293.45451355 -78.04196167 293.45451355 -81.69921875 293.09375 C-86.54904281 285.81901391 -84.88553936 274.24588301 -84.88452148 265.80053711 C-84.88667434 263.82206065 -84.9050803 261.84362318 -84.92382812 259.86523438 C-84.95223788 253.19069641 -84.70173458 246.63287665 -83.97564602 239.99523163 C-82.4669153 225.93494321 -82.45133961 211.94876137 -82.52926135 197.82203341 C-82.54612627 194.31043951 -82.55038888 190.79882776 -82.55592346 187.28720093 C-82.5666988 181.30787537 -82.58377609 175.32859974 -82.60546875 169.3493042 C-82.65838959 154.59448292 -82.67610264 139.83958979 -82.69261026 125.08468962 C-82.69531373 122.75675256 -82.69837974 120.4288162 -82.70150375 118.10087967 C-82.73694862 90.55419447 -82.56904388 63.01320619 -82.19921875 35.46875 C-82.18712749 34.55704041 -82.17503624 33.64533081 -82.16257858 32.70599365 C-82.02239308 22.16834679 -81.87044554 11.63094189 -81.69921875 1.09375 C-72.90051996 0.96170132 -64.10179968 0.83121443 -55.30305004 0.70259857 C-51.215287 0.64279918 -47.12753259 0.58250703 -43.03979492 0.52099609 C-11.79381925 0.05161885 -11.79381925 0.05161885 0 0 Z " fill="#030034" transform="translate(922.69921875,2011.90625)"/>
<path d="M0 0 C1.17280014 0.00539291 1.17280014 0.00539291 2.36929321 0.01089478 C3.18873917 0.01074875 4.00818512 0.01060272 4.85246277 0.01045227 C7.57416385 0.01115164 10.29579737 0.01894515 13.01748657 0.02676392 C14.89935773 0.02862801 16.78122938 0.03005195 18.6631012 0.03105164 C23.62631561 0.0348775 28.58950096 0.04470836 33.55270386 0.05575562 C38.61322639 0.06596827 43.67375359 0.07054894 48.73428345 0.07559204 C58.67114521 0.08633057 68.60798535 0.10340781 78.54483032 0.12442017 C79.74261913 42.9108773 79.7002385 85.69409633 79.67339873 128.49340475 C79.66901554 136.3203616 79.67219189 144.14730261 79.67702782 151.97425848 C79.68155167 159.60494498 79.68221598 167.23562457 79.67958915 174.86631197 C79.67803458 179.38889122 79.67781206 183.91145961 79.68112564 188.43403816 C79.68399681 192.63954965 79.68204295 196.84503083 79.67623138 201.05053902 C79.67490384 202.59337819 79.67529781 204.13621989 79.67749405 205.67905807 C79.68020331 207.77363795 79.67682847 209.8681188 79.67181396 211.96269226 C79.67124843 213.72223283 79.67124843 213.72223283 79.67067146 215.51731968 C79.54483032 218.12442017 79.54483032 218.12442017 78.54483032 219.12442017 C76.81805589 219.22443777 75.08699262 219.25408862 73.35733032 219.24942017 C72.41502563 219.25199829 71.47272095 219.25457642 70.50186157 219.25723267 C67.54483032 219.12442017 67.54483032 219.12442017 64.78599548 218.62796021 C61.38893579 218.10020075 58.16599427 217.97164536 54.72915649 217.93496704 C54.0763974 217.92667374 53.42363831 217.91838043 52.75109863 217.90983582 C51.34505211 217.89254281 49.93897849 217.87734753 48.53288841 217.86405945 C46.30993284 217.84290498 44.08711515 217.81589926 41.86424255 217.78738403 C36.35037176 217.71781767 30.83640397 217.65798919 25.32241821 217.59835815 C20.64897246 217.54750314 15.97560589 217.49274407 11.30227089 217.43254089 C9.10801645 217.40591549 6.91375466 217.3851421 4.71943665 217.36453247 C3.38413124 217.34793996 2.04882926 217.33106906 0.71353149 217.31387329 C-0.45639847 217.30134521 -1.62632843 217.28881714 -2.83171082 217.27590942 C-5.45516968 217.12442017 -5.45516968 217.12442017 -6.45516968 216.12442017 C-7.66639889 208.20592282 -7.58341303 200.31748399 -7.55282593 192.3241272 C-7.55090358 190.84312999 -7.54944128 189.36213212 -7.54840088 187.88113403 C-7.54525453 184.70717265 -7.53900807 181.5332383 -7.53033447 178.35928726 C-7.51673788 173.33160866 -7.51090216 168.30393882 -7.50619507 163.27624512 C-7.49418357 151.6946993 -7.47213957 140.11317675 -7.44996643 128.53164673 C-7.42974278 117.91655686 -7.41168232 107.30147491 -7.40175152 96.68636978 C-7.39679523 91.69759537 -7.38697472 86.7088623 -7.37332153 81.72010446 C-7.36581439 78.60573163 -7.36253683 75.49136431 -7.36035538 72.37698364 C-7.35849771 70.94319192 -7.35492593 69.50940111 -7.34942245 68.07561874 C-7.32240696 60.80283812 -7.44584239 53.63839098 -8.225667 46.40353298 C-8.78260981 40.87272387 -8.64109702 35.29817944 -8.64047241 29.74478149 C-8.64266971 27.56188748 -8.66093011 25.37949174 -8.67977905 23.19668579 C-8.70957366 15.72587399 -8.68754919 8.33505755 -6.45516968 1.12442017 C-4.68934605 -0.64140346 -2.35144969 0.00456456 0 0 Z " fill="#030034" transform="translate(556.4551696777344,2088.8755798339844)"/>
<path d="M0 0 C1.29421875 -0.01611328 2.5884375 -0.03222656 3.921875 -0.04882812 C13.23412503 -0.05347496 21.59993866 1.19510788 30.625 3.3125 C32.05513428 3.63118042 32.05513428 3.63118042 33.51416016 3.95629883 C65.97205028 11.43134757 92.91253441 33.51620085 110.39550781 61.26464844 C114.46229953 68.03832773 118.41642969 75.07939323 119.20263672 83.03735352 C119.32504227 84.24162743 119.32504227 84.24162743 119.44992065 85.4702301 C119.53658493 86.3821537 119.53658493 86.3821537 119.625 87.3125 C118.79642487 87.31027939 117.96784973 87.30805878 117.11416626 87.30577087 C68.89663882 87.09718764 68.89663882 87.09718764 20.6875 87.8125 C-2.99023238 88.42194268 -26.66824448 88.42788562 -50.35237503 88.43588257 C-53.47262139 88.43748593 -56.59286016 88.44103479 -59.71310425 88.44506836 C-64.68449678 88.45098204 -69.65585865 88.45110525 -74.62725258 88.44681931 C-76.47382911 88.44583195 -78.32040725 88.44638817 -80.16698265 88.44865799 C-91.28064604 88.45986156 -102.29069561 88.16017517 -113.375 87.3125 C-114.97860946 72.0782101 -104.26084777 55.21882323 -95.125 43.6875 C-79.99524092 26.07065723 -61.8197434 12.22116726 -39.375 5.3125 C-38.49585937 5.03792969 -37.61671875 4.76335937 -36.7109375 4.48046875 C-24.58457996 0.9334218 -12.59227985 -0.03116901 0 0 Z " fill="#040134" transform="translate(3114.375,1955.6875)"/>
<path d="M0 0 C3.17900319 0.00537696 6.35786623 0.00001867 9.53686523 -0.00634766 C11.58699575 -0.00568706 13.63712618 -0.00440629 15.68725586 -0.00244141 C17.09076546 -0.00547775 17.09076546 -0.00547775 18.52262878 -0.00857544 C24.56592535 0.01263161 30.4868915 0.41970578 36.48803711 1.13037109 C36.6416299 10.10949268 36.78981159 19.08868221 36.93100071 28.06800747 C36.99672561 32.23703859 37.06434535 36.40602136 37.13623047 40.57495117 C37.20547778 44.59488405 37.26983274 48.61486767 37.33073235 52.63493538 C37.35488987 54.17202686 37.3808387 55.70909122 37.40857124 57.24612236 C37.44698306 59.39165882 37.47914132 61.53720163 37.50976562 63.68286133 C37.52975113 64.9064183 37.54973663 66.12997528 37.57032776 67.39060974 C37.48803711 70.13037109 37.48803711 70.13037109 36.48803711 71.13037109 C33.87629469 71.23270151 31.29173108 71.26982545 28.67944336 71.26318359 C27.86155838 71.26450287 27.0436734 71.26582214 26.20100403 71.2671814 C23.48414505 71.26912068 20.76738592 71.26270003 18.05053711 71.25537109 C17.12629944 71.25448486 16.20206177 71.25359863 15.24981689 71.25268555 C-5.67866786 71.22925999 -26.59320396 70.73253411 -47.51196289 70.13037109 C-48.57062895 66.67203355 -48.63270071 63.49928207 -48.62548828 59.89306641 C-48.62541275 58.63206116 -48.62533722 57.37105591 -48.6252594 56.07183838 C-48.62015318 54.70072388 -48.61493719 53.32960979 -48.60961914 51.95849609 C-48.60775317 50.55173798 -48.60633011 49.14497921 -48.60533142 47.73822021 C-48.60152033 44.04256382 -48.59170209 40.34694697 -48.58062744 36.65130615 C-48.57038303 32.87740616 -48.56582731 29.10349975 -48.56079102 25.32958984 C-48.55007853 17.92983227 -48.53301905 10.53010723 -48.51196289 3.13037109 C-46.1362128 2.80878954 -43.76029951 2.48850524 -41.38427734 2.16894531 C-40.71876106 2.07872604 -40.05324478 1.98850677 -39.36756134 1.89555359 C-26.23286693 0.13286176 -13.23051605 -0.02665582 0 0 Z " fill="#030135" transform="translate(301.511962890625,2235.86962890625)"/>
</svg>
